<svg xmlns="http://www.w3.org/2000/svg" width="1230" height="780" viewBox="0 0 1230 780">
<style>
text { font-family: monospace; fill: #0f172a; }
.title { font-size: 18px; font-weight: 700; }
.body { font-size: 12px; }
.label { font-size: 13px; font-weight: 700; }
</style>
<rect x="0" y="0" width="1230" height="780" fill="#ffffff"/>
<text x="30.0" y="22" class="title">Seven unit equilateral triangles covering the hexagon skeleton</text>
<text x="30.0" y="42" class="body">Built from the snapshot C-triangle and start value x = 0.9173668553244948</text>
<polygon points="336.221,270.901 200.384,458.826 431.051,482.501" fill="#0ea5e9" fill-opacity="0.16" stroke="#0ea5e9" stroke-width="2"/>
<text x="328.552" y="398.076" class="label">C</text>
<polygon points="453.892,489.594 569.831,288.782 337.953,288.782" fill="#ef4444" fill-opacity="0.16" stroke="#ef4444" stroke-width="2"/>
<text x="459.892" y="349.719" class="label">V0</text>
<polygon points="318.793,288.782 550.671,288.782 434.732,87.970" fill="#f59e0b" fill-opacity="0.16" stroke="#f59e0b" stroke-width="2"/>
<text x="440.732" y="215.844" class="label">V1</text>
<polygon points="314.392,303.757 427.077,101.101 195.229,104.841" fill="#10b981" fill-opacity="0.16" stroke="#10b981" stroke-width="2"/>
<text x="318.232" y="163.900" class="label">V2</text>
<polygon points="87.970,320.142 319.848,320.142 203.909,119.330" fill="#8b5cf6" fill-opacity="0.16" stroke="#8b5cf6" stroke-width="2"/>
<text x="209.909" y="247.205" class="label">V3</text>
<polygon points="220.960,520.954 336.899,320.142 105.021,320.142" fill="#ec4899" fill-opacity="0.16" stroke="#ec4899" stroke-width="2"/>
<text x="226.960" y="381.080" class="label">V4</text>
<polygon points="368.157,692.030 459.766,479.016 229.485,506.188" fill="#14b8a6" fill-opacity="0.16" stroke="#14b8a6" stroke-width="2"/>
<text x="358.469" y="553.078" class="label">V5</text>
<polygon points="560.251,305.376 444.312,104.563 212.434,104.563 96.495,305.376 212.434,506.188 444.312,506.188" fill="none" stroke="#111827" stroke-width="2"/>
<line x1="560.251" y1="305.376" x2="96.495" y2="305.376" stroke="#111827" stroke-width="1.5"/>
<line x1="444.312" y1="104.563" x2="212.434" y2="506.188" stroke="#111827" stroke-width="1.5"/>
<line x1="212.434" y1="104.563" x2="444.312" y2="506.188" stroke="#111827" stroke-width="1.5"/>
<text x="780.0" y="72" class="label">Cycle data</text>
<text x="780.0" y="92" class="body">G(x) = 0.8726097151133184550162905241348066362357593838410863590151949804273106607440244775288949024052764901608985096233716252783381093962871342482554314039497053464870</text>
<text x="780.0" y="108" class="body">G(x) - x = -0.0447571402111763449837094758651933637642406161589136409848050195726893392559755224711050975947235098391014903766283747216618906037128657517445685960502946535130</text>
<text x="780.0" y="136" class="body">V0: a=0.917367  b=0.082633  c=0.899525</text>
<text x="780.0" y="152" class="body">V1: a=0.917367  b=0.082633  c=0.886867</text>
<text x="780.0" y="168" class="body">V2: a=0.917367  b=0.073535  c=0.934615</text>
<text x="780.0" y="184" class="body">V3: a=0.926465  b=0.073535  c=0.926378</text>
<text x="780.0" y="200" class="body">V4: a=0.926465  b=0.073535  c=0.216844</text>
<text x="780.0" y="216" class="body">V5: a=0.926465  b=0.127390  c=0.118179</text>
<text x="780.0" y="244" class="label">Coverage check</text>
<text x="780.0" y="264" class="body">edge 0: [0.000000, 1.000000]</text>
<text x="780.0" y="280" class="body">edge 1: [0.000000, 1.000000]</text>
<text x="780.0" y="296" class="body">edge 2: [0.000000, 1.000000]</text>
<text x="780.0" y="312" class="body">edge 3: [0.000000, 1.000000]</text>
<text x="780.0" y="328" class="body">edge 4: [0.000000, 1.000000]</text>
<text x="780.0" y="344" class="body">edge 5: [0.000000, 1.000000]</text>
<text x="780.0" y="360" class="body">diag 0: [0.000000, 1.000000]</text>
<text x="780.0" y="376" class="body">diag 1: [0.000000, 1.000000]</text>
<text x="780.0" y="392" class="body">diag 2: [0.000000, 1.000000]</text>
<text x="780.0" y="408" class="body">diag 3: [0.000000, 1.000000]</text>
<text x="780.0" y="424" class="body">diag 4: [0.000000, 1.000000]</text>
<text x="780.0" y="440" class="body">diag 5: [0.000000, 1.000000]</text>
</svg>