<svg xmlns="http://www.w3.org/2000/svg" width="1080" height="560" viewBox="0 0 1080 560">
<style>
text { font-family: monospace; fill: #0f172a; }
.small { font-size: 12px; }
.label { font-size: 13px; }
.title { font-size: 16px; font-weight: 600; }
</style>
<rect x="0" y="0" width="1080" height="560" fill="#ffffff"/>
<text x="40.0" y="28" class="title">Counterexample verification</text>
<text x="40.0" y="46" class="small">x = 0.111500000000000000000000000000,  G(x) = 0.814761321267560622323861252778,  G(x) - x = 0.703261321267560622323861252778</text>
<text x="40.0" y="42.0" class="label">Triangle and c_i values</text>
<rect x="40.0" y="60.0" width="420.0" height="420.0" fill="#fff" stroke="#cbd5e1"/>
<path d="M 405.000 270.000 L 327.500 135.766 L 172.500 135.766 L 95.000 270.000 L 172.500 404.234 L 327.500 404.234 Z" fill="none" stroke="#0f172a" stroke-width="1.5"/>
<path d="M 255.246 246.955 L 164.445 372.575 L 318.635 388.400 Z" fill="rgba(137,207,240,0.14)" stroke="#0891b2" stroke-width="2"/>
<line x1="250.000" y1="270.000" x2="405.000" y2="270.000" stroke="#e2e8f0" stroke-width="1.5"/>
<text x="361.600" y="270.000" class="small">c_0 = 0.899525</text>
<line x1="250.000" y1="270.000" x2="327.500" y2="135.766" stroke="#e2e8f0" stroke-width="1.5"/>
<text x="305.800" y="173.352" class="small">c_1 = 0.886867</text>
<line x1="250.000" y1="270.000" x2="172.500" y2="135.766" stroke="#e2e8f0" stroke-width="1.5"/>
<text x="194.200" y="173.352" class="small">c_2 = 0.934615</text>
<line x1="250.000" y1="270.000" x2="95.000" y2="270.000" stroke="#e2e8f0" stroke-width="1.5"/>
<text x="138.400" y="270.000" class="small">c_3 = 0.926378</text>
<line x1="250.000" y1="270.000" x2="172.500" y2="404.234" stroke="#e2e8f0" stroke-width="1.5"/>
<text x="194.200" y="366.648" class="small">c_4 = 0.216844</text>
<line x1="250.000" y1="270.000" x2="327.500" y2="404.234" stroke="#e2e8f0" stroke-width="1.5"/>
<text x="305.800" y="366.648" class="small">c_5 = 0.118179</text>
<circle cx="250.000" cy="270.000" r="4" fill="#dc2626"/>
<text x="600.0" y="42.0" class="label">Composition graph</text>
<rect x="600.0" y="60.0" width="420.0" height="420.0" fill="#fff" stroke="#cbd5e1"/>
<line x1="729.000" y1="108.000" x2="729.000" y2="432.000" stroke="#e2e8f0" stroke-width="1"/>
<line x1="648.000" y1="351.000" x2="972.000" y2="351.000" stroke="#e2e8f0" stroke-width="1"/>
<line x1="810.000" y1="108.000" x2="810.000" y2="432.000" stroke="#e2e8f0" stroke-width="1"/>
<line x1="648.000" y1="270.000" x2="972.000" y2="270.000" stroke="#e2e8f0" stroke-width="1"/>
<line x1="891.000" y1="108.000" x2="891.000" y2="432.000" stroke="#e2e8f0" stroke-width="1"/>
<line x1="648.000" y1="189.000" x2="972.000" y2="189.000" stroke="#e2e8f0" stroke-width="1"/>
<rect x="648.000" y="108.000" width="324.000" height="324.000" fill="none" stroke="#94a3b8" stroke-width="1.5"/>
<line x1="648.000" y1="432.000" x2="972.000" y2="108.000" stroke="#cbd5e1" stroke-dasharray="6 6" stroke-width="1.5"/>
<path d="M 648.000 432.000 L 652.050 427.950 L 656.100 423.900 L 660.150 419.850 L 664.200 415.800 L 668.250 411.750 L 672.300 409.425 L 676.350 407.643 L 680.400 405.131 L 684.450 168.017 L 688.500 168.017 L 692.550 168.017 L 696.600 168.017 L 700.650 168.017 L 704.700 168.017 L 708.750 168.017 L 712.800 168.017 L 716.850 168.017 L 720.900 168.017 L 724.950 163.074 L 729.000 163.074 L 733.050 163.074 L 737.100 163.074 L 741.150 163.074 L 745.200 163.074 L 749.250 163.074 L 753.300 163.074 L 757.350 163.074 L 761.400 163.074 L 765.450 163.074 L 769.500 163.074 L 773.550 163.074 L 777.600 163.074 L 781.650 163.074 L 785.700 163.074 L 789.750 163.074 L 793.800 163.074 L 797.850 163.074 L 801.900 163.074 L 805.950 163.074 L 810.000 163.074 L 814.050 163.074 L 818.100 163.074 L 822.150 163.074 L 826.200 163.074 L 830.250 163.074 L 834.300 163.074 L 838.350 163.074 L 842.400 163.074 L 846.450 163.074 L 850.500 163.074 L 854.550 163.074 L 858.600 163.074 L 862.650 163.074 L 866.700 162.709 L 870.750 162.031 L 874.800 161.386 L 878.850 160.774 L 882.900 160.191 L 886.950 159.637 L 891.000 159.109 L 895.050 158.606 L 899.100 158.127 L 903.150 157.670 L 907.200 157.234 L 911.250 156.818 L 915.300 156.421 L 919.350 156.041 L 923.400 155.679 L 927.450 155.333 L 931.500 154.895 L 935.550 154.166 L 939.600 153.432 L 943.650 151.905 L 947.700 140.661 L 951.750 128.250 L 955.800 124.200 L 959.850 120.150 L 963.900 116.100 L 967.950 112.050 L 972.000 108.000" fill="none" stroke="#b45309" stroke-width="2.5"/>
<line x1="684.126" y1="395.874" x2="684.126" y2="168.017" stroke="#dc2626" stroke-dasharray="4 4" stroke-width="1.5"/>
<circle cx="684.126" cy="168.017" r="5" fill="#dc2626"/>
<text x="648.000" y="504.000" class="small">identity: gray dashed, G: orange, witness: red</text>
<text x="648.000" y="522.000" class="small">witness = (0.111500, 0.814761)</text>
</svg>